<svg id="Capa_1" enable-background="new 0 0 512 512" height="512" viewBox="0 0 512 512" width="512" xmlns="http://www.w3.org/2000/svg"><g><g><path d="m245.378 191.32v-9c0-4.142-3.358-7.5-7.5-7.5s-7.5 3.358-7.5 7.5v9c0 4.142 3.358 7.5 7.5 7.5s7.5-3.358 7.5-7.5z"/><path d="m274.122 174.82c-4.142 0-7.5 3.358-7.5 7.5v9c0 4.142 3.358 7.5 7.5 7.5s7.5-3.358 7.5-7.5v-9c0-4.142-3.358-7.5-7.5-7.5z"/><path d="m271.707 213.022c-.007 0-.014 0-.021 0-4.142.011-7.491 3.378-7.48 7.52.001.578-.427 1.67-1.641 2.846-1.711 1.659-4.179 2.684-6.311 2.612-.17-.006-.34-.006-.51 0-2.125.075-4.599-.953-6.311-2.612-1.213-1.176-1.642-2.268-1.641-2.846.011-4.142-3.338-7.509-7.48-7.52-.007 0-.013 0-.021 0-4.132 0-7.488 3.345-7.5 7.48-.013 4.919 2.189 9.77 6.202 13.658 4.567 4.426 10.895 6.955 17.004 6.839.152.003.303.005.455.005 5.958 0 12.096-2.527 16.55-6.844 4.012-3.888 6.215-8.739 6.202-13.658-.009-4.135-3.365-7.48-7.497-7.48z"/><path d="m86.634 222.218c4.142 0 7.5-3.358 7.5-7.5v-9c0-4.142-3.358-7.5-7.5-7.5s-7.5 3.358-7.5 7.5v9c0 4.142 3.358 7.5 7.5 7.5z"/><path d="m122.878 222.218c4.142 0 7.5-3.358 7.5-7.5v-9c0-4.142-3.358-7.5-7.5-7.5s-7.5 3.358-7.5 7.5v9c0 4.142 3.358 7.5 7.5 7.5z"/><path d="m81.55 243.901c-.013 4.919 2.19 9.77 6.202 13.658 4.567 4.426 10.896 6.948 17.004 6.838.152.003.303.005.455.005 5.958 0 12.096-2.527 16.549-6.843 4.012-3.888 6.215-8.739 6.202-13.658-.011-4.135-3.367-7.48-7.5-7.48-.007 0-.013 0-.02 0-4.142.011-7.491 3.377-7.48 7.52.001.578-.427 1.67-1.641 2.847-1.712 1.659-4.195 2.691-6.31 2.611-.17-.006-.34-.006-.51 0-2.104.08-4.598-.953-6.31-2.611-1.214-1.176-1.643-2.269-1.641-2.847.011-4.142-3.338-7.509-7.48-7.52-4.179-.011-7.51 3.338-7.52 7.48z"/><path d="m503.833 309.669c-.578-5.326-2.891-10.498-6.965-14.572l-30.318-30.317c-1.602-1.602-3.393-2.941-5.314-4.021 1.868-4.721 2.965-9.828 3.134-15.165h4.278c13.541 0 24.557-11.016 24.557-24.557v-6.887c0-8.93-4.793-16.76-11.94-21.058v-26.412c0-30.474-24.792-55.267-55.266-55.267h-37.509c-30.474 0-55.266 24.792-55.266 55.267v5.323c-1.005-.849-2.071-1.628-3.204-2.31v-27.158c0-30.248-24.608-54.856-54.856-54.856h-38.328c-30.248 0-54.856 24.608-54.856 54.856v27.158c-1.133.681-2.199 1.461-3.204 2.31v-6.07c0-30.248-24.608-54.856-54.856-54.856h-22.92c-4.142 0-7.5 3.358-7.5 7.5s3.358 7.5 7.5 7.5h22.92c21.977 0 39.856 17.879 39.856 39.856v23.66h-2.721c-3.22-13.198-15.136-23.025-29.312-23.025h-53.975c-14.175 0-26.092 9.827-29.312 23.025h-2.721v-49.883c0-7.518 6.116-13.633 13.633-13.633h6.632c4.142 0 7.5-3.358 7.5-7.5s-3.358-7.5-7.5-7.5h-6.631c-15.789 0-28.633 12.845-28.633 28.633v53.381c-7.147 4.298-11.94 12.128-11.94 21.058v6.887c0 13.541 11.016 24.557 24.557 24.557h4.276c.171 5.338 1.267 10.444 3.136 15.166-1.922 1.08-3.713 2.419-5.314 4.021l-30.318 30.317c-4.074 4.074-6.387 9.246-6.964 14.572-5.159 7.774-8.169 17.089-8.169 27.098v70.054c0 9.649 7.851 17.5 17.5 17.5h335.5.256c4.142 0 7.5-3.358 7.5-7.5h-.256c0-4.142-3.358-7.5-7.5-7.5h-35.512v-72.554c0-18.847 15.333-34.181 34.181-34.181h26.802c.631 15.328 13.293 27.606 28.773 27.606 10.783 0 20.191-5.961 25.125-14.757 2.431 2.562 5.604 4.227 8.919 4.924.676 3.227 2.26 6.273 4.693 8.705 2.43 2.43 5.471 4.014 8.693 4.69.696 3.317 2.357 6.441 4.916 8.916 3.303 3.193 7.621 4.781 11.965 4.781 4.557 0 9.144-1.748 12.618-5.222l12.154-12.153c.433 2.166.672 4.4.672 6.691v70.054c0 1.378-1.122 2.5-2.5 2.5h-106.499c-4.142 0-7.5 3.358-7.5 7.5s3.358 7.5 7.5 7.5h106.5c9.649 0 17.5-7.851 17.5-17.5v-70.054c0-10.009-3.01-19.324-8.167-27.098zm-456.24-79.076h-4.241c-5.27 0-9.557-4.287-9.557-9.557v-6.887c0-5.27 4.287-9.557 9.557-9.557h4.241zm430.611-16.444v6.887c0 5.27-4.287 9.557-9.557 9.557h-4.241v-26h4.241c5.27 0 9.557 4.287 9.557 9.556zm-129.98-47.469c0-22.203 18.063-40.267 40.266-40.267h37.508c22.203 0 40.266 18.063 40.266 40.267v22.913h-4.106c-3.002-5.331-8.709-8.946-15.251-8.946h-6.773l-11.43-19.797c-1.87-3.238-5.354-5.25-9.093-5.25s-7.224 2.012-9.093 5.25l-11.43 19.797h-31.506c-6.542 0-12.249 3.615-15.251 8.946h-4.106v-22.913zm-11.94 47.469c0-5.27 4.287-9.557 9.557-9.557h4.241v26h-4.241c-5.27 0-9.557-4.287-9.557-9.557zm-9.324-23.398v6.888c0 .304-.018.605-.046.902-1.696 2.052-3.062 4.381-4.025 6.911-1.555 1.095-3.444 1.744-5.486 1.744h-4.241v-26h4.241c5.27-.001 9.557 4.286 9.557 9.555zm-129.98-48.216c0-21.977 17.879-39.856 39.856-39.856h38.328c21.977 0 39.856 17.879 39.856 39.856v23.66h-2.721c-3.22-13.198-15.136-23.025-29.312-23.025h-53.976c-14.175 0-26.092 9.827-29.312 23.025h-2.721v-23.66zm70.889 108.504h-23.737c-16.704 0-30.294-13.59-30.294-30.294v-47.4c0-8.367 6.808-15.175 15.175-15.175h53.976c8.367 0 15.175 6.808 15.175 15.175v47.4c-.001 16.704-13.591 30.294-30.295 30.294zm1.935 14.945v3.859c0 7.611-6.192 13.804-13.804 13.804s-13.804-6.192-13.804-13.804v-3.859c.643.027 1.286.055 1.935.055h23.737c.65 0 1.293-.028 1.936-.055zm-84.764-75.233c0-5.269 4.287-9.556 9.557-9.556h4.241v26h-4.241c-2.036 0-3.922-.645-5.474-1.735-.965-2.54-2.335-4.883-4.038-6.941-.027-.29-.045-.583-.045-.88zm-23.122 13.842h4.241c5.27 0 9.557 4.287 9.557 9.557v6.887c0 5.27-4.287 9.557-9.557 9.557h-4.241zm-.028 41h4.269c13.26 0 24.092-10.566 24.535-23.72 1.272.205 2.573.322 3.902.322h4.273c.157 4.957 1.106 9.717 2.738 14.152-11.308 4.945-19.108 16.19-19.108 29.299 0 .631.019 1.26.056 1.888-10.2 3.938-18.559 11.059-24.071 20.051h-24.924v-1.446c16.183-6.548 27.749-22.181 28.33-40.546zm-99.297-48.85c0-8.367 6.808-15.175 15.175-15.175h53.976c8.367 0 15.175 6.808 15.175 15.175v47.4c0 16.704-13.589 30.294-30.293 30.294h-23.739c-16.704 0-30.294-13.59-30.294-30.294zm55.967 92.645v12c0 7.611-6.192 13.804-13.804 13.804-6.817 0-12.481-4.972-13.592-11.478.651-.503 1.274-1.054 1.859-1.658 3.355-3.47 4.924-8.057 4.753-12.619h18.849c.649 0 1.292-.022 1.935-.049zm-92.821 16.316 30.318-30.317c.735-.735 1.575-1.323 2.48-1.771 6.039 7.029 14.188 12.191 23.46 14.489.997 1.02 1.111 2.626.242 3.525-.864.894-2.079.849-2.843.428-2.924-1.612-6.563-1.097-8.924 1.265-2.361 2.361-2.877 5.999-1.265 8.923.414.75.466 1.951-.396 2.813-.863.862-2.063.81-2.812.397-2.925-1.612-6.562-1.097-8.924 1.265-2.361 2.361-2.877 6-1.265 8.924.413.75.465 1.95-.397 2.812s-2.064.809-2.812.397c-2.925-1.612-6.563-1.098-8.924 1.265-2.361 2.361-2.877 6-1.265 8.924.421.763.466 1.979-.427 2.843-.906.876-2.533.754-3.551-.263l-12.694-12.693c-3.647-3.647-3.647-9.58-.001-13.226zm168.773 103.617h-32.256v-38.174c0-6.893-5.607-12.5-12.5-12.5h-38.756c-4.142 0-7.5 3.358-7.5 7.5s3.358 7.5 7.5 7.5h36.256v35.674h-85v-35.674h13.744c4.142 0 7.5-3.358 7.5-7.5s-3.358-7.5-7.5-7.5h-16.244c-6.893 0-12.5 5.607-12.5 12.5v38.174h-29.756c-1.378 0-2.5-1.122-2.5-2.5v-70.054c0-2.291.24-4.525.672-6.691l12.154 12.153c3.475 3.475 8.061 5.222 12.618 5.222 4.344 0 8.662-1.588 11.966-4.782 2.558-2.474 4.22-5.599 4.915-8.916 3.222-.677 6.264-2.261 8.693-4.69 2.433-2.432 4.017-5.479 4.693-8.705 3.227-.676 6.273-2.26 8.705-4.693.075-.075.141-.155.214-.231 4.934 8.796 14.342 14.757 25.125 14.757 15.481 0 28.142-12.277 28.773-27.606h26.801c18.848 0 34.181 15.333 34.181 34.181v72.555zm107.976-72.554v72.554h-92.977v-72.554c0-21.842-14.316-40.394-34.055-46.791 4.509-4.81 10.439-8.337 17.284-9.91 2.028-.466 3.772-1.753 4.814-3.555s1.288-3.955.68-5.945c-.488-1.597-.735-3.252-.735-4.919 0-7.396 4.939-13.843 11.687-16.115 4.773 5.783 10.955 10.357 18.009 13.212v7.1c0 15.882 12.921 28.804 28.804 28.804s28.804-12.921 28.804-28.804v-7.1c7.055-2.855 13.237-7.429 18.009-13.212 6.749 2.272 11.687 8.719 11.687 16.115 0 1.667-.247 3.322-.735 4.919-.608 1.99-.361 4.144.681 5.945s2.785 3.089 4.813 3.555c6.846 1.572 12.775 5.1 17.284 9.91-19.737 6.396-34.054 24.949-34.054 46.791zm75.952-49.181h-24.925c-5.512-8.992-13.871-16.113-24.071-20.051.038-.628.056-1.257.056-1.888 0-13.109-7.8-24.354-19.108-29.299 1.632-4.435 2.581-9.195 2.738-14.152h4.273c1.329 0 2.63-.117 3.902-.322.443 13.154 11.275 23.72 24.535 23.72h4.278c.582 18.364 12.144 34 28.322 40.55zm28.804 27.606c-7.611 0-13.804-6.192-13.804-13.804v-11.999c.642.027 1.286.048 1.935.048h18.849c-.171 4.562 1.399 9.15 4.753 12.62.584.604 1.208 1.154 1.859 1.658-1.111 6.505-6.775 11.477-13.592 11.477zm11.869-40.755h-23.738c-16.704 0-30.293-13.59-30.293-30.294v-45.996c0-1.378 1.122-2.5 2.5-2.5h32.949c4.452 0 8.6-2.395 10.825-6.25l8.255-14.297 8.254 14.297c2.226 3.855 6.374 6.25 10.825 6.25h8.216c1.378 0 2.5 1.122 2.5 2.5v45.996c.001 16.704-13.589 30.294-30.293 30.294zm67.148 44.492-12.694 12.693c-1.019 1.02-2.645 1.139-3.55.264-.895-.865-.849-2.081-.428-2.844 1.612-2.924 1.096-6.562-1.265-8.924-1.443-1.443-3.363-2.197-5.306-2.197-1.236 0-2.481.305-3.619.932-.75.412-1.95.465-2.812-.397s-.81-2.062-.397-2.812c1.612-2.925 1.097-6.563-1.265-8.924-2.361-2.361-6-2.877-8.924-1.265-.75.413-1.949.465-2.812-.397-.862-.862-.81-2.062-.396-2.813 1.612-2.924 1.096-6.562-1.265-8.923-2.362-2.362-5.999-2.877-8.924-1.265-.764.422-1.979.466-2.843-.427-.868-.898-.755-2.501.238-3.521 9.274-2.298 17.428-7.46 23.466-14.493.904.447 1.744 1.035 2.478 1.77l30.317 30.317c3.647 3.647 3.647 9.58.001 13.226z"/><path d="m396.622 214.718v-9c0-4.142-3.358-7.5-7.5-7.5s-7.5 3.358-7.5 7.5v9c0 4.142 3.358 7.5 7.5 7.5s7.5-3.358 7.5-7.5z"/><path d="m425.366 198.218c-4.142 0-7.5 3.358-7.5 7.5v9c0 4.142 3.358 7.5 7.5 7.5s7.5-3.358 7.5-7.5v-9c0-4.142-3.358-7.5-7.5-7.5z"/><path d="m422.951 236.42c-.007 0-.013 0-.02 0-4.142.011-7.491 3.377-7.48 7.52.001.578-.427 1.67-1.641 2.847-1.711 1.659-4.183 2.691-6.31 2.611-.17-.006-.34-.006-.51 0-2.106.08-4.598-.953-6.31-2.611-1.214-1.176-1.643-2.269-1.641-2.847.011-4.142-3.338-7.509-7.48-7.52-4.172-.011-7.509 3.338-7.52 7.48-.013 4.919 2.19 9.77 6.202 13.658 4.567 4.426 10.896 6.948 17.004 6.838.152.003.303.005.455.005 5.958 0 12.096-2.527 16.549-6.843 4.012-3.888 6.215-8.739 6.202-13.658-.012-4.134-3.368-7.48-7.5-7.48z"/><path d="m224.5 288.647c-4.142 0-7.5 3.358-7.5 7.5v30c0 4.142 3.358 7.5 7.5 7.5s7.5-3.358 7.5-7.5v-30c0-4.142-3.358-7.5-7.5-7.5z"/><path d="m287.5 288.647c-4.142 0-7.5 3.358-7.5 7.5v30c0 4.142 3.358 7.5 7.5 7.5s7.5-3.358 7.5-7.5v-30c0-4.142-3.358-7.5-7.5-7.5z"/></g></g></svg>