<svg id="Capa_1" enable-background="new 0 0 512.429 512.429" height="512" viewBox="0 0 512.429 512.429" width="512" xmlns="http://www.w3.org/2000/svg"><g><path d="m215.462 182.379h15.125v15h-15.125z"/><path d="m275.337 182.379h15.125v15h-15.125z"/><path d="m393.556 144.119v67.062h53v-67.062h-19v-62.732l11.32-5.143-105.906-43.928-5.746 13.855 74.012 30.698-49.15 22.331v-10.643c0-15.164-12.337-27.5-27.5-27.5h-139.452c-15.163 0-27.5 12.336-27.5 27.5v10.406l-48.751-22.151 146.172-60.574 58.257 24.163 5.746-13.855-64.001-26.546-183.828 76.179 86.405 39.259v10.313c-11.033 13.786-17.094 30.963-17.094 48.667v142.032c-41.649 2.856-74.668 37.629-74.668 79.991v25.177h15v-25.177c0-5.71.743-11.249 2.129-16.531l171.953 110.625 74.636-48.017-8.115-12.615-66.521 42.796-166.35-107.019c11.007-20.481 32.637-34.441 57.473-34.441h26.403v60.511l39.298-11.642 43.094 50.632 43.372-50.383 39.235 11.319v-60.437h26.556c24.796 0 46.399 13.914 57.422 34.343l-87.129 56.054 8.115 12.615 84.636-54.45c1.404 5.315 2.16 10.891 2.16 16.641v100.986h-46.807l-.762-45.933-14.998.249.758 45.684h-224.64l.667-45.701-14.998-.219-.669 45.92h-46.917v-60.872h-15v75.872h378.367v-115.986c0-42.266-32.87-76.976-74.387-79.97v-141.286c0-18.11-6.295-35.57-17.767-49.501v-10.009l60.47-27.474v55.917zm-49.922 15.947h-28.654c-18.018 0-34.625-9.364-44.16-24.132h70.282c6.112 7.65 10.32 16.569 12.352 26.047-3.035-1.23-6.348-1.915-9.82-1.915zm11.219 26.219c0 6.186-5.032 11.219-11.219 11.219h-8.094v-22.438h8.094c6.187 0 11.219 5.033 11.219 11.219zm-99.797 166.305-2.748-.134c-14.583-1.388-26.028-13.701-26.028-28.641v-33.225c8.917 3.434 18.588 5.335 28.7 5.335 10.17 0 19.894-1.924 28.853-5.395v33.285c0 15.867-12.91 28.775-28.777 28.775zm-.076-71.666c-35.911 0-65.127-29.216-65.127-65.127v-54.604c0-8.773 1.729-17.249 5.147-25.259h58.722c10.96 23.609 34.944 39.132 61.258 39.132h5.129v40.73c0 35.912-29.217 65.128-65.129 65.128zm-80.111-120.858h-8.11c-3.532 0-6.901.706-9.979 1.978 1.902-9.466 5.957-18.419 11.906-26.11h10.273c-2.61 7.758-3.976 15.835-4.09 24.132zm-8.11 15h8.094v22.438h-8.094c-6.187 0-11.219-5.033-11.219-11.219s5.033-11.219 11.219-11.219zm5.875-86.509c0-6.893 5.607-12.5 12.5-12.5h139.452c6.893 0 12.5 5.607 12.5 12.5v32.378h-164.452zm-.144 227.682h-16.949v-106.262c3.403 1.618 7.207 2.527 11.219 2.527h8.094v3.293c0 22.739 9.536 43.279 24.801 57.877-16.094 7.57-27.01 23.818-27.165 42.565zm14.99.404c0-14.886 9.915-27.515 23.8-31.323v38.495c0 14.556 7.148 27.467 18.111 35.431l-41.911 12.416zm67.457 91.029-27.428-32.225 26.504-7.852 28.378 8.187zm67.543-35.936-42.202-12.175c11.213-7.935 18.554-20.995 18.554-35.746v-38.453c13.801 3.861 23.647 16.464 23.647 31.281v55.093zm-12.175-98.06c15.266-14.598 24.803-35.139 24.803-57.879v-3.293h8.525c4.012 0 7.815-.909 11.219-2.527v106.262h-17.382c-.155-18.729-11.074-34.987-27.165-42.563zm121.251-77.494h-23v-37.062h23z"/></g></svg>