<svg id="Capa_1" enable-background="new 0 0 510.63 510.63" height="512" viewBox="0 0 510.63 510.63" width="512" xmlns="http://www.w3.org/2000/svg"><g><path d="m255.315 99.8c-48.999 0-88.862 39.863-88.862 88.862 4.881 117.888 172.861 117.854 177.724-.001 0-48.998-39.864-88.861-88.862-88.861zm58.862 88.862c0 2.272-.143 4.51-.394 6.715l-43.467-17.382v-46.252c25.212 6.651 43.861 29.645 43.861 56.919zm-73.862-56.918v46.252l-43.467 17.382c-3.602-29.183 16.067-56.662 43.467-63.634zm-32.538 91.572 32.538-13.011v35.275c-13.244-3.493-24.669-11.498-32.538-22.264zm62.538 22.264v-35.275l32.538 13.011c-7.869 10.766-19.294 18.771-32.538 22.264z"/><path d="m447.616 359.055 43.236-43.236-76.672-76.671 16.098-16.098c50.732-48.679 50.734-136.269-.001-184.946-45.244-47.085-125.291-51.045-174.962-9.024-49.68-42.015-129.713-38.066-174.963 9.025-50.733 48.675-50.735 136.269.001 184.944-.001 0 16.096 16.098 16.096 16.098l-76.672 76.672 43.236 43.236-59.3 59.3 62.615 29.66 29.66 62.615 111.947-111.946-43.236-43.236 24.025-24.026 66.591 66.591 66.591-66.591 24.025 24.026-43.236 43.236 111.947 111.946 29.66-62.615 62.615-29.66zm-282.108 39.628-60.631 60.632-16.023-33.826-33.826-16.023 29.198-29.198 27.826 27.826 31.433-31.434zm-53.456-33.015-49.848-49.849 55.458-55.459 49.849 49.849zm-10.488-163.832c-39.093-37.514-39.097-105.007.001-142.519 37.511-39.094 105.007-39.096 142.518.001 0-.001 11.231 11.23 11.231 11.23l11.231-11.231c19.035-19.034 44.343-29.517 71.261-29.517 54.166-1.117 101.898 46.607 100.776 100.778.001 26.918-10.482 52.225-29.516 71.259l-153.751 153.75zm291.404 58.525 55.458 55.458-49.848 49.849-55.458-55.458zm28.808 165.128-16.023 33.826-60.631-60.632 22.022-22.023 31.433 31.434 27.826-27.826 29.198 29.198z"/></g></svg>